<?xml version="1.0" encoding="utf-8"?>
<!-- Generator: Adobe Illustrator 22.0.1, SVG Export Plug-In . SVG Version: 6.00 Build 0)  -->
<svg version="1.1" id="Layer_1" xmlns="http://www.w3.org/2000/svg" xmlns:xlink="http://www.w3.org/1999/xlink" x="0px" y="0px"
	 width="300px" height="100px" viewBox="0 0 300 100" style="enable-background:new 0 0 300 100;" xml:space="preserve">
<style type="text/css">
	.st0{fill-rule:evenodd;clip-rule:evenodd;fill:#FFFFFF;}
</style>
<g>
	<path class="st0" d="M53.9,75.4h-1.2v-6.8h1.2V75.4z M53.3,65.8c0.2,0,0.4,0.1,0.6,0.3c0.2,0.2,0.2,0.4,0.2,0.6
		c0,0.2-0.1,0.4-0.2,0.6c-0.2,0.2-0.4,0.3-0.6,0.3c-0.2,0-0.4-0.1-0.6-0.3c-0.2-0.2-0.3-0.4-0.3-0.6c0-0.2,0.1-0.4,0.3-0.6
		C52.8,65.9,53,65.8,53.3,65.8 M65.9,75.4h-1.2v-3.6c0-0.7-0.1-1.2-0.4-1.5c-0.4-0.4-0.8-0.6-1.4-0.6c-0.6,0-1.1,0.2-1.4,0.8
		c-0.2,0.3-0.3,0.8-0.3,1.5v3.5H60v-3.8c0-0.9,0.3-1.7,0.8-2.2c0.5-0.6,1.3-0.9,2.2-0.9c1.3,0,2.2,0.6,2.7,1.7
		c0.2,0.4,0.3,0.9,0.3,1.4V75.4z M76.4,68.6h1.3l-2.1,6c-0.1,0.3-0.2,0.5-0.3,0.7c-0.2,0.2-0.5,0.3-0.8,0.3c-0.4,0-0.7-0.1-0.9-0.3
		c-0.1-0.1-0.2-0.3-0.3-0.7l-2.1-5.9h1.3l1.8,5.3c0.1,0.2,0.1,0.2,0.2,0.2c0.1,0,0.2-0.1,0.2-0.2L76.4,68.6z M88.9,72.3l0.8,0.5
		c-0.2,0.8-0.6,1.4-1,1.8c-0.7,0.6-1.5,1-2.5,1c-1.1,0-1.9-0.4-2.6-1.1c-0.6-0.7-1-1.5-1-2.4c0-1,0.4-1.9,1.1-2.6
		c0.7-0.6,1.5-0.9,2.4-0.9c1,0,1.9,0.4,2.6,1.1c0.2,0.2,0.4,0.5,0.6,0.9l-4.4,2.8l-0.5-0.9l3.3-2.2c-0.4-0.5-0.9-0.7-1.6-0.7
		c-0.7,0-1.2,0.2-1.6,0.7c-0.4,0.5-0.6,1-0.6,1.7c0,0.7,0.2,1.3,0.7,1.8c0.5,0.5,1.1,0.8,1.7,0.8c0.5,0,0.9-0.1,1.4-0.4
		C88.2,73.8,88.6,73.1,88.9,72.3 M95,75.4v-1h2.7c0.5,0,0.8,0,1-0.1c0.3-0.1,0.5-0.3,0.5-0.7c0-0.3-0.2-0.6-0.6-0.7L96.1,72
		c-0.9-0.3-1.3-0.8-1.3-1.6c0-1.2,0.8-1.8,2.5-1.8h2.7v1.1h-2.9c-0.7,0-1.1,0.2-1.1,0.7c0,0.3,0.2,0.6,0.6,0.7L99,72
		c0.5,0.2,0.9,0.4,1.1,0.6c0.3,0.3,0.4,0.7,0.4,1.1c0,1.2-0.8,1.7-2.3,1.7H95z M107.4,69.7v3.2c0,0.4,0,0.6,0.1,0.8
		c0.2,0.4,0.7,0.6,1.5,0.6h0.6v1.1h-0.7c-0.6,0-1,0-1.3-0.1c-0.6-0.2-0.9-0.4-1.2-0.9c-0.2-0.3-0.3-0.8-0.3-1.5v-6.3h1.2v2.1h2.2v1
		H107.4z M124.6,75.4h-1.2v-4.1c0-0.5-0.1-0.9-0.4-1.2c-0.3-0.3-0.6-0.5-1.1-0.5c-0.5,0-0.9,0.2-1.2,0.6c-0.1,0.2-0.2,0.4-0.3,0.6
		c0,0.1,0,0.3,0,0.7v3.8h-1.2v-3.9c0-1.2-0.5-1.8-1.5-1.8c-0.5,0-0.9,0.2-1.2,0.6c-0.1,0.2-0.2,0.4-0.2,0.6c0,0.1,0,0.3,0,0.6v3.9
		H115v-4.1c0-0.6,0.1-1,0.2-1.3c0.4-1,1.2-1.5,2.4-1.5c1,0,1.7,0.4,2.2,1.3c0.5-0.8,1.2-1.3,2.2-1.3c0.5,0,1,0.1,1.4,0.4
		c0.8,0.4,1.2,1.2,1.2,2.4V75.4z M136.5,72.3l0.8,0.5c-0.2,0.8-0.6,1.4-1,1.8c-0.7,0.6-1.5,1-2.5,1c-1,0-1.9-0.4-2.6-1.1
		c-0.6-0.7-1-1.5-1-2.4c0-1,0.4-1.9,1.1-2.6c0.7-0.6,1.5-0.9,2.4-0.9c1,0,1.9,0.4,2.5,1.1c0.2,0.2,0.4,0.5,0.6,0.9l-4.4,2.8
		l-0.5-0.9l3.3-2.2c-0.4-0.5-0.9-0.7-1.6-0.7c-0.7,0-1.2,0.2-1.6,0.7c-0.4,0.5-0.6,1-0.6,1.7c0,0.7,0.2,1.3,0.7,1.8
		c0.5,0.5,1.1,0.8,1.7,0.8c0.5,0,0.9-0.1,1.3-0.4C135.9,73.8,136.3,73.1,136.5,72.3 M148.7,75.4h-1.2v-3.6c0-0.7-0.2-1.2-0.4-1.5
		c-0.3-0.4-0.8-0.6-1.4-0.6c-0.6,0-1.1,0.2-1.4,0.8c-0.2,0.3-0.3,0.8-0.3,1.5v3.5h-1.2v-3.8c0-0.9,0.3-1.7,0.8-2.2
		c0.5-0.6,1.3-0.9,2.2-0.9c1.3,0,2.2,0.6,2.7,1.7c0.2,0.4,0.3,0.9,0.3,1.4V75.4z M156,69.7v3.2c0,0.4,0,0.6,0.1,0.8
		c0.2,0.4,0.7,0.6,1.5,0.6h0.6v1.1h-0.7c-0.6,0-1,0-1.3-0.1c-0.6-0.2-0.9-0.4-1.2-0.9c-0.2-0.3-0.3-0.8-0.3-1.5v-6.3h1.2v2.1h2.2v1
		H156z"/>
	<polygon class="st0" points="4.9,75.4 47.2,33.3 47.1,54 25.7,75.3 	"/>
	<rect x="39" y="68.1" class="st0" width="3.2" height="3.2"/>
	<rect x="43.2" y="68.1" class="st0" width="3.2" height="3.2"/>
	<rect x="39" y="72.2" class="st0" width="3.2" height="3.2"/>
	<rect x="43.2" y="72.2" class="st0" width="3.2" height="3.2"/>
	<path class="st0" d="M99.8,47.3v-0.2v0v0V47l0-0.1v0v-0.1c0-0.2,0-0.4,0-0.6v0l0-0.1l0-0.1c0-0.2,0-0.4,0.1-0.6v0
		c0-0.2,0.1-0.4,0.1-0.6c0-0.2,0.1-0.4,0.1-0.6c0.3-1,0.6-2,1.1-3h0c0.1-0.2,0.2-0.4,0.3-0.5c0.1-0.1,0.2-0.3,0.3-0.5h0
		c0.5-0.8,1.1-1.6,1.7-2.2l0,0c0.1-0.1,0.3-0.3,0.4-0.4c0.1-0.1,0.2-0.2,0.4-0.4c0.5-0.5,1.1-1,1.8-1.4l0.1-0.1
		c0.1-0.1,0.2-0.1,0.4-0.2l0.1,0l0,0h0l0.1-0.1h0l0.1-0.1c0.2-0.1,0.5-0.3,0.7-0.4l0.1-0.1l0.1-0.1h0c0.3-0.1,0.5-0.2,0.7-0.3l0,0
		c0.3-0.1,0.5-0.2,0.7-0.3c0.3-0.1,0.5-0.2,0.8-0.2c1.3-0.4,2.7-0.6,4.1-0.6h0.5v0c1.9,0.1,3.6,0.5,5.3,1.2c0.3,0.1,0.6,0.3,0.9,0.4
		c1.5,0.8,2.9,1.8,4.2,3.2l0.2,0.2l0.4,0.3l-0.3,0.4l-0.2,0.2l-2.2,2.6h0l-0.2,0.3l-0.4,0.4l-0.4-0.3l-0.3-0.2l0,0l-0.3-0.3
		l-0.3-0.3c-0.5-0.4-1-0.8-1.4-1.1v0l-0.3-0.2l-0.2-0.2c-0.3-0.2-0.6-0.4-0.9-0.6l-0.1-0.1l-0.1-0.1h0l-0.1,0l-0.1,0v0
		c-0.1-0.1-0.2-0.1-0.4-0.2l-0.1,0l-0.1,0c-0.1-0.1-0.3-0.1-0.4-0.2l-0.1,0c-0.1,0-0.2-0.1-0.4-0.1c-0.1,0-0.2-0.1-0.4-0.1
		c-0.6-0.2-1.3-0.2-1.9-0.2h-0.2l-0.1,0H114h-0.1c-0.2,0-0.3,0-0.5,0h0l-0.1,0l-0.1,0v0c-0.2,0-0.3,0-0.5,0.1h0
		c-0.1,0-0.3,0-0.5,0.1c-0.2,0-0.3,0.1-0.5,0.1c-0.8,0.2-1.5,0.5-2.3,0.9c-0.1,0.1-0.2,0.1-0.3,0.2c-0.1,0.1-0.2,0.1-0.3,0.2
		c-0.5,0.3-0.9,0.7-1.3,1.1l0,0c-0.1,0.1-0.2,0.2-0.2,0.2c-0.1,0.1-0.2,0.2-0.2,0.3c-0.4,0.4-0.7,0.9-1,1.5v0h0l-0.1,0.1l-0.1,0.1
		c-0.1,0.3-0.2,0.5-0.3,0.8l-0.1,0.2l0,0.1c-0.1,0.3-0.2,0.5-0.2,0.8l0,0c0,0.1,0,0.2,0,0.3v0c0,0.1,0,0.2-0.1,0.3
		c-0.1,0.5-0.1,1-0.1,1.6v0.2v0c0,0.3,0,0.6,0.1,0.9c0,0.1,0,0.2,0,0.3c0.1,0.4,0.2,0.8,0.3,1.3l0,0.1l0,0.1c0,0.1,0.1,0.2,0.1,0.3
		c0,0.1,0.1,0.2,0.1,0.3c0,0.1,0.1,0.2,0.1,0.3c0.2,0.5,0.4,0.9,0.7,1.3l0.1,0.1l0,0l0,0l0,0.1l0.1,0.1c0.1,0.1,0.2,0.3,0.3,0.4
		c0.1,0.1,0.1,0.2,0.2,0.3c0.1,0.1,0.2,0.2,0.2,0.3v0h0c0.1,0.1,0.2,0.3,0.3,0.4c0.1,0.1,0.3,0.3,0.4,0.4c0.6,0.6,1.4,1.1,2.2,1.5v0
		h0c0.1,0,0.2,0.1,0.3,0.1c0.1,0.1,0.2,0.1,0.3,0.1c0.4,0.2,0.9,0.3,1.3,0.4c0.1,0,0.2,0,0.3,0.1c0.1,0,0.2,0,0.3,0
		c0.5,0.1,1,0.1,1.4,0.1h0c0.4,0,0.8,0,1.2,0l0.2,0v0c0.3,0,0.6-0.1,0.9-0.2c0.1,0,0.2,0,0.3-0.1c0.1,0,0.2-0.1,0.3-0.1
		c0.5-0.2,1-0.4,1.5-0.6c0.1-0.1,0.2-0.1,0.3-0.2c0.1,0,0.2-0.1,0.3-0.2c0.5-0.3,0.8-0.6,1.2-1l0,0c0.1-0.1,0.1-0.1,0.2-0.2
		c0.1-0.1,0.1-0.1,0.2-0.2c0.4-0.4,0.7-0.8,0.9-1.3l0-0.1l0,0h0l0.1-0.1c0-0.1,0.1-0.2,0.1-0.2c0.2-0.4,0.4-0.8,0.5-1.3
		c0.1-0.2,0.1-0.5,0.2-0.7l0-0.2h-8h-0.4h-0.5v-0.5V49v-3.2v-0.3v-0.5h0.5h0.4h12.6h0.4h0.5v0.5v0.3v2.1v0.5v0v0.5h0
		c0,0.4-0.1,0.9-0.1,1.3c0,0.2-0.1,0.5-0.1,0.7c0,0.2-0.1,0.4-0.2,0.7c-0.2,0.7-0.4,1.4-0.7,2.1l0,0.1v0l0,0.1
		c-0.1,0.2-0.2,0.4-0.3,0.5c-0.1,0.2-0.2,0.4-0.3,0.6c-0.1,0.2-0.2,0.4-0.3,0.5c-0.6,0.9-1.4,1.7-2.2,2.5l0,0l-0.1,0.1h0l-0.1,0.1
		l-0.5,0.4v0c-0.2,0.2-0.5,0.3-0.7,0.5h0l-0.2,0.1l-0.2,0.1c-0.3,0.2-0.6,0.4-0.9,0.5h0c-0.1,0-0.1,0.1-0.2,0.1
		c-0.3,0.2-0.6,0.3-0.9,0.4c-0.3,0.1-0.6,0.3-0.9,0.4c-1.5,0.5-3.1,0.8-4.8,0.8h0l-0.2,0v0l0,0h-0.1l-0.2,0h0l-0.2,0
		c-0.4,0-0.7-0.1-1.1-0.1h0l-0.2,0l-0.2,0c-0.4-0.1-0.7-0.1-1.1-0.2h0c-0.3-0.1-0.7-0.2-1-0.3c-0.3-0.1-0.7-0.2-1-0.4
		c-1.7-0.7-3.3-1.7-4.7-3h0v0l-0.4-0.3l0,0c-0.1-0.1-0.1-0.1-0.2-0.2v0l-0.1-0.1l-0.1-0.1c-0.1-0.2-0.3-0.3-0.4-0.4
		c-0.1-0.2-0.2-0.3-0.4-0.4c-0.1-0.1-0.2-0.3-0.3-0.4c-0.6-0.8-1-1.6-1.4-2.5l-0.2-0.5h0c-0.1-0.1-0.1-0.2-0.2-0.4
		c-0.3-0.7-0.4-1.4-0.6-2v0l0-0.1c0-0.1-0.1-0.2-0.1-0.4c0-0.1,0-0.2,0-0.4C99.8,48.5,99.8,47.9,99.8,47.3L99.8,47.3z"/>
	<path class="st0" d="M74.4,60.7V37.9c0-0.6,0.1-1.1,0.2-1.6l0.1-0.4h0l0-0.1c0.1-0.3,0.3-0.7,0.5-1c0.1-0.1,0.2-0.2,0.3-0.4
		c0.1-0.1,0.2-0.2,0.3-0.3c0.6-0.5,1.4-0.7,2.3-0.7h0h0.5v0c0.1,0,0.2,0,0.3,0.1c0.1,0,0.2,0,0.3,0c0.1,0,0.2,0.1,0.3,0.1
		c0.3,0.1,0.6,0.2,0.9,0.4c0.1,0,0.1,0.1,0.2,0.1h0c0.1,0,0.1,0.1,0.1,0.1v0l0,0c0.1,0,0.2,0.1,0.2,0.2c0.1,0.1,0.1,0.1,0.2,0.2
		c0.3,0.3,0.5,0.6,0.7,1h0l0.1,0.3l7.8,15.9V34.3h0V34v-0.5h0.5h0.3h3.5h0.4h0.5V34v0.4v24c0,1.1-0.3,1.9-0.9,2.4
		c-0.6,0.5-1.5,0.8-2.6,0.8h0c-0.4,0-0.9-0.1-1.2-0.2c-0.1,0-0.1,0-0.2-0.1c-0.3-0.1-0.6-0.2-0.9-0.4l-0.4-0.3v0
		c-0.2-0.2-0.4-0.3-0.6-0.5h0c0,0-0.1-0.1-0.1-0.1h0c0-0.1-0.1-0.1-0.1-0.1c-0.2-0.2-0.3-0.5-0.4-0.8L79.7,43v17.7V61v0.5h-0.5h-0.3
		h-3.5h-0.4h-0.5V61V60.7z"/>
	<path class="st0" d="M52.4,60.7V43.5c0-0.4,0-0.9,0.1-1.3l0-0.2c0.1-0.4,0.1-0.7,0.2-1.1l0.1-0.4h0c0-0.1,0.1-0.2,0.1-0.3
		c0.2-0.6,0.5-1.2,0.8-1.8l0.1-0.2L54,38v0c0.2-0.3,0.4-0.6,0.6-0.9h0l0.1-0.2l0,0l0.1-0.2c0.2-0.3,0.5-0.5,0.7-0.7v0v0l0,0
		c0.2-0.2,0.5-0.5,0.7-0.6c0.2-0.2,0.5-0.4,0.8-0.6c1.4-0.9,3.1-1.3,5-1.3h0c0.8,0,1.5,0.1,2.2,0.2c0.1,0,0.2,0,0.3,0.1
		c0.6,0.1,1.1,0.3,1.6,0.5v0c0.2,0.1,0.4,0.2,0.5,0.2c0.1,0.1,0.3,0.2,0.5,0.3c0.8,0.5,1.6,1.2,2.2,1.9h0l0.1,0.1v0h0l0.2,0.3h0
		l0.1,0.1c0.3,0.4,0.5,0.7,0.7,1.2l0,0c0,0.1,0.1,0.2,0.1,0.2c0.1,0.1,0.1,0.2,0.1,0.2v0c0.2,0.4,0.4,0.8,0.5,1.3v0
		c0.1,0.2,0.1,0.4,0.2,0.5c0,0.2,0.1,0.4,0.1,0.6c0.2,1,0.3,2,0.3,3.1h0v16.3h0V61v0.5h-0.5H71h-3.5h-0.3h-0.5V61v-0.4V49.8h-7.5
		v-5.1h7.5v-0.1v0v-0.4c0-0.4,0-0.8-0.1-1.2c0-0.2,0-0.3-0.1-0.4c-0.1-0.6-0.2-1.1-0.4-1.6L66,41L66,40.9c-0.1-0.2-0.2-0.4-0.3-0.6
		c-0.1-0.1-0.1-0.2-0.1-0.2c0,0-0.1-0.1-0.2-0.2c-0.2-0.3-0.5-0.6-0.8-0.8l0,0L64.4,39l0,0c0,0-0.1-0.1-0.1-0.1h0l0,0l0,0
		c-0.1,0-0.1-0.1-0.2-0.1h0c-0.1,0-0.2-0.1-0.2-0.1c-0.1,0-0.1,0-0.2-0.1c-0.4-0.1-0.8-0.2-1.2-0.2h-0.2h0h-0.2
		c-0.2,0-0.4,0-0.6,0.1c-0.1,0-0.2,0-0.2,0c-0.4,0.1-0.7,0.2-1.1,0.4L59.9,39l-0.1,0.1c-0.2,0.1-0.4,0.2-0.5,0.4v0
		c-0.1,0.1-0.1,0.1-0.2,0.2c-0.1,0.1-0.1,0.2-0.2,0.2c-0.3,0.4-0.5,0.8-0.7,1.4l0,0c0,0.1-0.1,0.2-0.1,0.3c0,0.1-0.1,0.2-0.1,0.3
		c-0.2,0.5-0.2,1.1-0.2,1.6v1.2h0v5.1h0v10.9V61v0.5h-0.5h-0.3h-3.6h-0.3h-0.5V61V60.7z"/>
	<path class="st0" d="M138.6,60.7V43.5c0-0.4,0-0.9,0.1-1.3l0-0.2c0.1-0.4,0.1-0.7,0.2-1.1l0.1-0.4c0-0.1,0-0.2,0.1-0.3
		c0.2-0.6,0.5-1.2,0.8-1.8l0.1-0.2l0.1-0.2v0c0.2-0.3,0.4-0.6,0.6-0.9l0.1-0.2l0,0l0.1-0.2h0c0.2-0.3,0.4-0.5,0.7-0.7v0l0,0v0
		c0.2-0.2,0.5-0.5,0.7-0.6c0.3-0.2,0.5-0.4,0.8-0.6c1.4-0.9,3.1-1.3,4.9-1.3c0.8,0,1.5,0.1,2.2,0.2c0.1,0,0.2,0,0.3,0.1
		c0.6,0.1,1.1,0.3,1.6,0.5v0h0c0.2,0.1,0.4,0.2,0.5,0.2c0.2,0.1,0.3,0.2,0.5,0.3c0.8,0.5,1.6,1.2,2.2,1.9l0.1,0.1l0,0h0l0.2,0.3
		l0.1,0.1c0.2,0.4,0.5,0.7,0.7,1.2l0,0c0,0.1,0.1,0.2,0.1,0.2c0.1,0.1,0.1,0.2,0.1,0.2v0c0.2,0.4,0.4,0.8,0.5,1.3l0,0
		c0.1,0.2,0.1,0.4,0.2,0.5c0,0.2,0.1,0.4,0.1,0.6c0.2,1,0.3,2,0.3,3.1v16.3V61v0.5h-0.5h-0.3h-3.5h-0.4h-0.5V61v-0.4V49.8h-7.5v-5.1
		h7.5v-0.1v0v-0.4c0-0.4-0.1-0.8-0.1-1.2c0-0.2,0-0.3,0-0.4c-0.1-0.6-0.2-1.1-0.4-1.6l0-0.1l-0.1-0.1c-0.1-0.2-0.2-0.4-0.3-0.6h0
		c0-0.1-0.1-0.2-0.1-0.2c0,0-0.1-0.1-0.1-0.2c-0.3-0.3-0.5-0.6-0.8-0.8h0l0,0h0l-0.1-0.1l0,0c-0.1,0-0.1-0.1-0.1-0.1h0l0,0h0l0,0
		c-0.1,0-0.1-0.1-0.2-0.1h0c-0.1,0-0.1-0.1-0.2-0.1c-0.1,0-0.2,0-0.2-0.1c-0.3-0.1-0.8-0.2-1.2-0.2h-0.3h-0.2c-0.2,0-0.4,0-0.6,0.1
		c-0.1,0-0.2,0-0.2,0c-0.4,0.1-0.7,0.2-1.1,0.4h0l-0.1,0.1l-0.1,0.1c-0.2,0.1-0.4,0.2-0.5,0.4v0c-0.1,0.1-0.1,0.1-0.2,0.2
		c-0.1,0.1-0.2,0.2-0.2,0.2c-0.3,0.4-0.6,0.8-0.8,1.4v0c0,0.1-0.1,0.2-0.1,0.3h0c0,0.1,0,0.2-0.1,0.3c-0.1,0.5-0.2,1.1-0.2,1.6v1.2
		h0v5.1h0v10.9V61v0.5h-0.5H143h-3.5h-0.3h-0.5V61V60.7z"/>
	<rect x="130.8" y="33.5" class="st0" width="5.3" height="28.1"/>
	<g>
		<path class="st0" d="M213.1,70l0.4,1.9h-0.3l0-0.1c-0.2-0.3-0.3-0.5-0.4-0.6c-0.2-0.2-0.3-0.4-0.4-0.6c-0.4-0.4-0.9-0.6-1.5-0.6
			c-0.7,0-1.2,0.3-1.6,0.8c-0.2,0.2-0.3,0.5-0.4,0.8c-0.1,0.3-0.1,0.6-0.1,0.9c0,0.3,0,0.6,0.1,0.9c0.1,0.3,0.2,0.6,0.4,0.8
			c0.2,0.2,0.4,0.4,0.8,0.5c0.3,0.1,0.6,0.2,1,0.2c0.5,0,0.9-0.1,1.3-0.3c0.4-0.2,0.7-0.5,1-0.9l0.4,0.2c-0.3,0.5-0.7,0.8-1.2,1.1
			c-0.5,0.2-1,0.4-1.6,0.4c-0.9,0-1.7-0.3-2.3-0.8c-0.6-0.5-0.9-1.2-0.9-2.1c0-0.8,0.3-1.5,0.9-2c0.6-0.6,1.4-0.9,2.2-0.9
			c0.4,0,0.7,0.1,1,0.1c0.3,0.1,0.6,0.2,0.8,0.4l0.2-0.4H213.1z M218.6,72.7l1.5,1.8c0.3,0.3,0.6,0.5,1,0.6v0.2h-1.5l-2-2.6h-1.3
			v1.3v0.2c0,0.3,0,0.5,0.1,0.6c0.1,0.2,0.3,0.2,0.6,0.2h0.2v0.2h-2.7v-0.2l0.1,0c0.2,0,0.4,0,0.5-0.1c0.1,0,0.2-0.1,0.2-0.2
			c0-0.1,0.1-0.2,0.1-0.3c0-0.1,0-0.2,0-0.3V71c0-0.3-0.1-0.6-0.2-0.7c-0.1-0.1-0.3-0.1-0.5-0.1h-0.2v-0.3h3.7
			c0.6,0,1.1,0.1,1.5,0.3c0.5,0.2,0.7,0.6,0.7,1.1c0,0.4-0.2,0.8-0.5,1C219.5,72.6,219.1,72.7,218.6,72.7 M216.3,72.5h1.4
			c0.3,0,0.5,0,0.7,0c0.2,0,0.3-0.1,0.5-0.2c0.4-0.2,0.5-0.5,0.5-0.9c0-0.4-0.2-0.7-0.6-0.9c-0.3-0.1-0.7-0.2-1.2-0.2
			c-0.2,0-0.4,0-0.6,0c-0.2,0-0.4,0.1-0.5,0.1c-0.1,0.1-0.2,0.1-0.2,0.2c0,0.1,0,0.2,0,0.3V72.5z M226.4,69.9l0.6,1.5l-0.3,0.1
			c-0.4-0.4-0.8-0.7-1.2-0.9c-0.4-0.2-0.9-0.3-1.5-0.3c-0.2,0-0.4,0-0.5,0c-0.2,0-0.3,0.1-0.4,0.1c-0.1,0.1-0.2,0.1-0.2,0.2
			c0,0.1-0.1,0.2-0.1,0.4v1.2h0.6c0.5,0,0.8-0.1,0.9-0.2c0.2-0.1,0.2-0.4,0.3-0.8h0.3v2.4h-0.3c0-0.3-0.1-0.5-0.2-0.7
			c-0.1-0.2-0.2-0.2-0.4-0.3c-0.2,0-0.4-0.1-0.6-0.1h-0.6v1.6c0,0.1,0,0.2,0,0.3c0,0.1,0,0.2,0.1,0.2c0.1,0.1,0.2,0.2,0.4,0.2
			c0.2,0,0.4,0.1,0.5,0.1c0.7,0,1.3-0.1,1.8-0.4c0.4-0.2,0.9-0.6,1.3-1.1l0.3,0.1l-0.8,1.7h-5.4v-0.2l0.1,0c0.2,0,0.3,0,0.4-0.1
			c0.1,0,0.2-0.1,0.2-0.2c0-0.1,0.1-0.1,0.1-0.2c0-0.1,0-0.2,0-0.3V71c0-0.3,0-0.5-0.1-0.6c-0.1-0.2-0.3-0.2-0.6-0.2h-0.1v-0.3
			H226.4z M233.1,69.9l0.6,1.5l-0.3,0.1c-0.4-0.4-0.8-0.7-1.2-0.9c-0.4-0.2-0.9-0.3-1.5-0.3c-0.2,0-0.4,0-0.5,0
			c-0.2,0-0.3,0.1-0.4,0.1c-0.1,0.1-0.1,0.1-0.2,0.2c0,0.1-0.1,0.2-0.1,0.4v1.2h0.6c0.5,0,0.8-0.1,0.9-0.2c0.1-0.1,0.2-0.4,0.3-0.8
			h0.3v2.4h-0.3c0-0.3-0.1-0.5-0.2-0.7c-0.1-0.2-0.2-0.2-0.4-0.3c-0.1,0-0.3-0.1-0.6-0.1h-0.6v1.6c0,0.1,0,0.2,0,0.3
			c0,0.1,0.1,0.2,0.1,0.2c0.1,0.1,0.2,0.2,0.4,0.2c0.2,0,0.4,0.1,0.6,0.1c0.7,0,1.3-0.1,1.8-0.4c0.5-0.2,0.9-0.6,1.3-1.1l0.3,0.1
			l-0.9,1.7h-5.3v-0.2l0.1,0c0.2,0,0.3,0,0.4-0.1c0.1,0,0.2-0.1,0.2-0.2c0-0.1,0.1-0.1,0.1-0.2c0-0.1,0-0.2,0-0.3V71
			c0-0.3,0-0.5-0.1-0.6c-0.1-0.2-0.3-0.2-0.6-0.2h-0.1v-0.3H233.1z M234.5,75.4v-0.2l0.1,0c0.2,0,0.3,0,0.4-0.1
			c0.1,0,0.2-0.1,0.3-0.2c0-0.1,0.1-0.1,0.1-0.2c0-0.1,0-0.2,0-0.3v-3.4c0-0.2,0-0.4-0.1-0.5c-0.1-0.2-0.3-0.2-0.6-0.2h-0.1v-0.3
			h2.7c0.7,0,1.3,0.1,1.7,0.2c0.4,0.1,0.7,0.2,1,0.4c0.4,0.2,0.7,0.6,0.9,1c0.2,0.4,0.3,0.8,0.3,1.3c0,0.4-0.1,0.8-0.3,1.2
			c-0.2,0.4-0.5,0.7-0.9,1c-0.3,0.2-0.6,0.3-1,0.4c-0.4,0.1-1,0.1-1.7,0.1H234.5z M236.2,71.1v3.2c0,0.1,0,0.2,0,0.4
			c0,0.1,0.1,0.2,0.1,0.3c0,0,0.2,0.1,0.3,0.1c0.2,0,0.4,0,0.6,0c0.8,0,1.5-0.2,2-0.6c0.5-0.4,0.7-1,0.7-1.8c0-0.4,0-0.7-0.1-1
			c-0.1-0.3-0.3-0.6-0.5-0.8c-0.3-0.2-0.6-0.4-0.9-0.5c-0.4-0.1-0.7-0.1-1.1-0.1c-0.2,0-0.4,0-0.6,0c-0.2,0-0.3,0.1-0.4,0.2
			c0,0.1-0.1,0.2-0.1,0.3C236.2,70.8,236.2,71,236.2,71.1 M250.3,69.9l0.6,1.7l-0.3,0.1c-0.3-0.4-0.7-0.8-1-1
			c-0.5-0.3-0.9-0.5-1.4-0.5c-0.7,0-1.2,0.3-1.6,0.8c-0.3,0.4-0.4,1-0.4,1.7c0,0.3,0,0.6,0.1,0.9c0.1,0.3,0.2,0.5,0.3,0.8
			c0.2,0.3,0.4,0.5,0.7,0.6c0.3,0.2,0.6,0.2,1,0.2c0.5,0,0.9-0.1,1.3-0.3c0.4-0.2,0.6-0.6,0.6-1c0-0.3-0.1-0.5-0.2-0.6
			c-0.1-0.1-0.4-0.2-0.7-0.2v-0.2h2.5V73h-0.1c-0.1,0-0.2,0-0.3,0.1c-0.1,0.1-0.2,0.1-0.3,0.2c0,0.1-0.1,0.2-0.1,0.3
			c0,0.1,0,0.2,0,0.3V74v1.4h-0.4l-0.3-0.6c-0.6,0.5-1.3,0.7-2.1,0.7c-0.9,0-1.7-0.3-2.3-0.8c-0.6-0.6-0.9-1.2-0.9-2.1
			c0-0.4,0.1-0.7,0.2-1.1c0.1-0.3,0.3-0.6,0.6-0.9c0.3-0.3,0.6-0.5,1-0.7c0.4-0.2,0.8-0.3,1.2-0.3c0.7,0,1.3,0.2,1.8,0.5l0.2-0.4
			H250.3z M256.5,72.7l1.5,1.8c0.3,0.3,0.6,0.5,1,0.6v0.2h-1.5l-2-2.6h-1.3v1.3v0.2c0,0.3,0,0.5,0.1,0.6c0.1,0.2,0.3,0.2,0.6,0.2
			h0.2v0.2h-2.7v-0.2l0.1,0c0.2,0,0.4,0,0.5-0.1c0.1,0,0.2-0.1,0.2-0.2c0-0.1,0.1-0.2,0.1-0.3c0-0.1,0-0.2,0-0.3V71
			c0-0.3-0.1-0.6-0.2-0.7c-0.1-0.1-0.3-0.1-0.5-0.1h-0.2v-0.3h3.7c0.6,0,1.1,0.1,1.5,0.3c0.5,0.2,0.7,0.6,0.7,1.1
			c0,0.4-0.2,0.8-0.5,1C257.3,72.6,256.9,72.7,256.5,72.7 M254.1,72.5h1.4c0.2,0,0.5,0,0.7,0c0.2,0,0.3-0.1,0.5-0.2
			c0.4-0.2,0.5-0.5,0.5-0.9c0-0.4-0.2-0.7-0.6-0.9c-0.3-0.1-0.7-0.2-1.2-0.2c-0.2,0-0.4,0-0.6,0c-0.2,0-0.4,0.1-0.5,0.1
			c-0.1,0.1-0.2,0.1-0.2,0.2c0,0.1,0,0.2,0,0.3V72.5z M262,69.7c-0.9,0-1.6,0.3-2.2,0.8c-0.6,0.6-0.9,1.3-0.9,2.1
			c0,0.8,0.3,1.5,0.9,2.1c0.6,0.6,1.3,0.8,2.1,0.8c0.9,0,1.6-0.3,2.2-0.8c0.6-0.5,0.9-1.2,0.9-2.1c0-0.8-0.3-1.5-0.8-2.1
			C263.7,70,262.9,69.7,262,69.7 M262,70.2L262,70.2c0.7,0,1.2,0.3,1.5,0.8c0.3,0.5,0.5,1.1,0.5,1.8c0,0.7-0.1,1.2-0.5,1.7
			c-0.4,0.5-0.9,0.8-1.5,0.8c-0.7,0-1.2-0.3-1.6-0.8c-0.3-0.4-0.5-1-0.5-1.7c0-0.8,0.2-1.4,0.5-1.8C260.9,70.4,261.4,70.2,262,70.2
			 M269.7,69.9h2v0.2h-0.1c-0.1,0-0.3,0-0.4,0c-0.1,0-0.2,0.1-0.2,0.2c0,0.1-0.1,0.2-0.1,0.3c0,0.1,0,0.3,0,0.5v2.5
			c0,0.4,0,0.6-0.1,0.8c-0.1,0.2-0.2,0.5-0.5,0.7c-0.2,0.2-0.5,0.3-0.8,0.3c-0.3,0.1-0.5,0.1-0.9,0.1c-0.3,0-0.6,0-0.9-0.1
			c-0.3-0.1-0.6-0.2-0.8-0.3c-0.3-0.2-0.5-0.4-0.6-0.6c-0.1-0.2-0.1-0.5-0.1-0.9V71c0-0.3,0-0.5-0.1-0.6c-0.1-0.2-0.3-0.3-0.5-0.3
			h-0.1v-0.2h2.4v0.2l-0.1,0c-0.2,0-0.3,0-0.4,0c-0.1,0-0.2,0.1-0.2,0.2c0,0,0,0.1-0.1,0.2c0,0.1,0,0.2,0,0.3v0.2v2v0.5
			c0,0.2,0,0.3,0,0.5c0,0.2,0.1,0.3,0.2,0.4c0.1,0.2,0.4,0.4,0.6,0.4c0.2,0.1,0.5,0.1,0.8,0.1c0.3,0,0.6,0,0.8-0.1
			c0.3-0.1,0.5-0.2,0.6-0.4c0.1-0.1,0.2-0.3,0.2-0.5c0-0.2,0-0.5,0-0.8V71c0-0.3,0-0.5-0.1-0.6c-0.1-0.2-0.3-0.3-0.6-0.3h-0.2V69.9z
			 M274.1,73v1.1v0.2c0,0.2,0,0.4,0.1,0.5c0.1,0.1,0.1,0.2,0.3,0.2c0.1,0,0.3,0.1,0.4,0.1h0.2v0.3h-2.7v-0.2l0.1,0
			c0.2,0,0.3,0,0.4-0.1c0.1,0,0.2-0.1,0.2-0.2c0-0.1,0.1-0.2,0.1-0.4c0-0.1,0-0.3,0-0.4V71c0-0.3,0-0.4-0.1-0.6
			c-0.1-0.2-0.3-0.2-0.6-0.2h-0.1v-0.3h3c0.3,0,0.6,0,0.9,0.1c0.2,0,0.5,0.1,0.7,0.2c0.5,0.3,0.8,0.7,0.8,1.2c0,0.2-0.1,0.5-0.2,0.7
			c-0.1,0.2-0.3,0.4-0.5,0.5c-0.2,0.1-0.5,0.2-0.8,0.3c-0.2,0-0.5,0.1-0.9,0.1H274.1z M274.1,72.7h1.1c0.3,0,0.5,0,0.6,0
			c0.2,0,0.4-0.1,0.6-0.3c0.1-0.1,0.2-0.3,0.3-0.4c0-0.1,0.1-0.3,0.1-0.5c0-0.2,0-0.3-0.1-0.5c-0.1-0.2-0.2-0.3-0.3-0.4
			c-0.1-0.1-0.3-0.2-0.5-0.2c-0.2,0-0.4-0.1-0.6-0.1c-0.2,0-0.4,0-0.6,0c-0.2,0-0.3,0.1-0.4,0.1c0,0-0.1,0.1-0.1,0.2
			c0,0.1,0,0.2,0,0.2v0.1V72.7z"/>
		<path class="st0" d="M226.9,18.3c1.3,0.3,2,1.5,1.7,2.6c-0.4,1.1-1.7,1.8-3,1.5c-3.2-0.8-5.6,0-6.9,1.6c0.8,0.1,1.5,0.2,2.3,0.4
			c0.4,0.1,0.8,0.2,1.2,0.3c3.2,1,5.8,2.7,7.5,4.7c1.7,2.1,2.4,4.6,1.6,7.2c-0.6,1.9-1.7,3.5-3.3,4.4c-1.6,0.9-3.5,1.2-5.8,0.7
			c-6.1-1.4-9.4-6.1-10-10.9c-0.1-0.7-0.1-1.3-0.1-2c-1.3,0.4-2.6,1-3.9,1.7c-3.5,2.1-6.3,5.3-7.7,8.8c-0.1,0.3-0.3,0.7-0.4,1.1v0
			c-1.2,3.8-0.7,7.9,1.4,11.2c1.9,3.1,5.2,5.5,9.8,6.8c3,0.8,5.8,0.5,8.2-0.5c1.9-0.7,3.5-1.9,4.8-3.2c1.3-1.3,2.3-2.8,2.8-4.3
			c0.6-1.6,0.6-3.2,0-4.5c-0.5-1.1,0-2.3,1.2-2.8c1.2-0.5,2.6,0,3.2,1.1c0.3,0.7,0.6,1.4,0.7,2.1c1.4-1.3,3.1-2.4,5.5-3.3
			c0.3-0.1,0.5-0.2,0.8-0.2c0-0.1,0-0.2,0-0.2c0.4-4.2,3.9-8.1,7.7-10.1c1.3-0.7,2.7-1.2,4-1.4c1.5-0.3,3-0.1,4.3,0.4
			c1.8,0.8,3,2.2,3.3,4.5c0,0.3,0.1,0.7,0,1v0c-0.1,1.6-0.8,3.3-2.2,4.6v0c-1.4,1.3-3.4,2.3-6.1,2.5c-0.7,0.1-1.4,0.1-2.2,0.1
			c-1.3,0-2.4-1-2.3-2.2c0-1.2,1.2-2.1,2.5-2.1c0.5,0,1,0,1.5,0c1.5-0.1,2.5-0.6,3.1-1.2l0,0c0.6-0.6,0.9-1.2,0.9-1.9
			c0-0.1,0-0.3,0-0.4c-0.1-0.7-0.3-1.1-0.6-1.2c-0.3-0.1-0.7-0.1-1.3,0l0,0c-0.7,0.1-1.6,0.4-2.4,0.9c-2.6,1.4-5.1,4-5.3,6.8
			c-0.2,1.7,0.3,3.3,1.2,4.6c0.5,0.7,1.2,1.3,1.9,1.7c0.6,0.3,1.3,0.4,2.1,0.2c1-0.2,2-0.8,3.1-1.9c0.5-0.5,1.3-0.8,2-0.7
			c1.3-3,4-5.5,6.8-7c1.3-0.7,2.7-1.2,4-1.4c1.5-0.3,3-0.1,4.3,0.4c1.8,0.8,3,2.2,3.3,4.5c0,0.3,0.1,0.7,0,1v0
			c-0.1,1.6-0.8,3.3-2.2,4.6v0c-1.4,1.3-3.4,2.3-6.1,2.6c-0.7,0.1-1.4,0.1-2.2,0.1c-1.3,0-2.4-1-2.3-2.2c0-1.2,1.2-2.1,2.5-2.1
			c0.5,0,1,0,1.5,0c1.5-0.2,2.5-0.6,3.1-1.2v0c0.6-0.6,0.9-1.2,0.9-1.9c0-0.1,0-0.3,0-0.4c-0.1-0.7-0.3-1.1-0.6-1.2
			c-0.3-0.1-0.7-0.1-1.3,0h0c-0.7,0.1-1.6,0.4-2.4,0.9c-2.6,1.4-5.1,4-5.3,6.8c-0.2,1.7,0.3,3.3,1.2,4.6c0.5,0.8,1.2,1.3,1.9,1.7
			c0.6,0.3,1.3,0.4,2.1,0.2c0.9-0.2,2-0.8,3.1-1.9c0.9-0.9,2.4-1,3.4-0.2c1,0.8,1.1,2.1,0.3,3c-1.8,1.9-3.7,2.9-5.6,3.3
			c-1.9,0.4-3.7,0.1-5.3-0.6c-1.5-0.7-2.8-1.8-3.8-3.1c-1-1.4-1.7-3-1.9-4.8c-1.1,0.7-2.2,1.1-3.2,1.3c-1.9,0.4-3.7,0.1-5.3-0.6
			c-1.5-0.7-2.8-1.8-3.8-3.1c-0.6-0.8-1.1-1.7-1.4-2.7c-5.3,2.3-6,6.6-7,13.2c-0.1,0.9-0.3,1.9-0.4,2.5c-0.2,1.2-1.4,2-2.7,1.8
			c-1.3-0.2-2.2-1.2-2-2.4c0.2-1.1,0.3-1.8,0.4-2.4c0.1-0.6,0.2-1.2,0.3-1.8c-1.7,1.6-3.7,3-6,3.9c-3.4,1.4-7.3,1.8-11.5,0.7
			c-5.9-1.6-10.1-4.8-12.6-8.8c-2.7-4.3-3.3-9.5-1.8-14.4l0,0c0.1-0.4,0.3-0.9,0.5-1.4c1.7-4.3,5.2-8.3,9.5-10.9
			c2.3-1.4,4.9-2.4,7.6-2.9c0.4-1,1-1.9,1.6-2.7C217.3,18.5,221.4,16.9,226.9,18.3 M283.2,50.8c-0.3,0-0.6-0.1-0.9-0.1
			c-0.5,0-0.9,0-1.3,0c-0.6,0-1.1,0.2-1.6,0.4c-1.4,0.6-2.5,1.9-3.3,3.4c-0.8,1.5-1.2,3.3-1,4.8c0.1,0.7,0.3,1.4,0.6,1.9
			c0.6,1,1.4,1.7,2.4,2.2c0.4,0.2,0.9,0.3,1.3,0.3c0.4,0,0.7-0.1,1.1-0.2c0.5-0.2,1-0.7,1.5-1.5c0.2-0.4,0.5-0.7,0.9-0.8
			c-0.3-2.3-0.3-4.9,0-7.7C282.9,52.7,283,51.8,283.2,50.8 M284.1,66.4c0.3,0.6,0.6,1.2,1,1.7c0.7,1,2.2,1.3,3.3,0.7
			c1.1-0.6,1.5-1.9,0.8-2.9c-1.7-2.6-2.1-6.9-1.6-11.9c0.6-6.2,2.7-13.3,5.2-19.3c0.5-1.1-0.2-2.3-1.4-2.7c-1.3-0.4-2.7,0.1-3.1,1.2
			c-1.8,4.2-3.3,8.9-4.4,13.5c-0.5-0.1-0.9-0.1-1.4-0.1c-0.7,0-1.4,0-2.1,0c-1.2,0.1-2.3,0.4-3.4,0.9c-2.4,1.1-4.3,3.1-5.4,5.4
			c-1.1,2.2-1.7,4.7-1.4,7c0.2,1.2,0.5,2.4,1.1,3.5c1,1.7,2.6,3.2,4.5,4c1,0.5,2.2,0.8,3.3,0.8c1.2,0,2.4-0.2,3.5-0.7
			C283.2,67.1,283.7,66.8,284.1,66.4 M217,28.1c-0.1,0.7-0.1,1.4,0,2.2c0.4,3.2,2.5,6.3,6.4,7.2c0.8,0.2,1.4,0.1,1.8-0.1
			c0.6-0.3,1-1.1,1.4-2.1c0.4-1.2,0-2.4-0.9-3.5c-1.1-1.3-2.9-2.5-5.2-3.2c-0.3-0.1-0.6-0.2-0.9-0.2h0
			C218.8,28.3,217.9,28.2,217,28.1"/>
	</g>
</g>
</svg>
